<?xml version="1.0" encoding="utf-8"?>
<!-- Generator: Adobe Illustrator 23.0.6, SVG Export Plug-In . SVG Version: 6.00 Build 0)  -->
<svg version="1.1" id="Layer_1" xmlns="http://www.w3.org/2000/svg" xmlns:xlink="http://www.w3.org/1999/xlink" x="0px" y="0px"
	 width="324.7px" height="48.8px" viewBox="0 0 324.7 48.8" style="enable-background:new 0 0 324.7 48.8;" xml:space="preserve">
<style type="text/css">
	.st0{fill:none;stroke:#D04B31;stroke-width:1.8;stroke-miterlimit:10;}
	.st1{fill:#D04B31;}
	.st2{fill:#19B359;}
	.st3{fill:#FFFFFF;}
	.st4{fill:none;stroke:#19B359;stroke-width:2;stroke-miterlimit:10;}
	.st5{fill:none;stroke:#221F1F;stroke-width:0.8;stroke-miterlimit:10;}
	.st6{fill:#FFFFFF;stroke:#221F1F;stroke-width:0.8;stroke-miterlimit:10;}
	.st7{fill:none;stroke:#C62C2C;stroke-width:0.8;stroke-miterlimit:10;}
	.st8{fill:#FFFFFF;stroke:#C62C2C;stroke-width:0.8;stroke-miterlimit:10;}
	.st9{fill:#231F20;}
	.st10{fill:none;stroke:#FFFFFF;stroke-miterlimit:10;}
	.st11{fill:#2C5693;}
	.st12{fill:none;stroke:#231F20;stroke-width:0.8;stroke-miterlimit:10;}
	.st13{fill:none;stroke:#285798;stroke-width:1.3;stroke-miterlimit:10;}
	.st14{fill:none;stroke:#010101;stroke-width:0.8;stroke-miterlimit:10;}
	.st15{fill:none;stroke:#111332;stroke-width:0.7;stroke-miterlimit:10;}
	.st16{fill:#010101;}
	.st17{fill:#3A803D;}
	.st18{fill:none;stroke:#231F20;stroke-width:0.7;stroke-miterlimit:10;}
	.st19{fill:none;stroke:#2C5693;stroke-width:0.8;stroke-miterlimit:10;}
</style>
<g id="Layer_5">
</g>
<g id="Layer_8">
</g>
<circle class="st0" cx="96.6" cy="14.9" r="14"/>
<path class="st1" d="M97.3,16.5h-1.4c-0.1,0-0.2-0.1-0.2-0.2V7.8c0-0.1,0.1-0.2,0.2-0.2h1.4c0.1,0,0.2,0.1,0.2,0.2v8.5
	C97.6,16.4,97.5,16.5,97.3,16.5z"/>
<circle class="st1" cx="96.6" cy="20.1" r="1.6"/>
<rect x="122.8" y="2.4" class="st2" width="43.9" height="43.9"/>
<ellipse class="st3" cx="144.7" cy="23.9" rx="19.3" ry="19.8"/>
<line class="st4" x1="135.9" y1="23.4" x2="142.9" y2="30.3"/>
<line class="st4" x1="153.4" y1="18.4" x2="142.9" y2="28.9"/>
<path class="st5" d="M39.2,18.3h-9.5c-0.5,0-0.9-0.4-0.9-0.9V5.6c0-0.5,0.4-0.9,0.9-0.9h9.5c0.5,0,0.9,0.4,0.9,0.9v11.8
	C40.1,17.9,39.7,18.3,39.2,18.3z"/>
<path class="st6" d="M41.4,6.1H27.4c-0.2,0-0.4-0.2-0.4-0.4V4.5C27,4.2,27.1,4,27.4,4h14.1c0.2,0,0.4,0.2,0.4,0.4v1.2
	C41.9,5.9,41.7,6.1,41.4,6.1z"/>
<line class="st5" x1="31.6" y1="8.4" x2="31.6" y2="16"/>
<line class="st5" x1="34.4" y1="8.4" x2="34.4" y2="16"/>
<line class="st5" x1="37.3" y1="8.4" x2="37.3" y2="16"/>
<path class="st6" d="M36.9,4h-5c-0.2,0-0.4-0.2-0.4-0.3V2.7c0-0.2,0.2-0.3,0.4-0.3h5c0.2,0,0.3,0.2,0.3,0.3v0.9
	C37.3,3.9,37.1,4,36.9,4z"/>
<path class="st7" d="M39.2,48.3h-9.5c-0.5,0-0.9-0.4-0.9-0.9V35.6c0-0.5,0.4-0.9,0.9-0.9h9.5c0.5,0,0.9,0.4,0.9,0.9v11.8
	C40.1,47.9,39.7,48.3,39.2,48.3z"/>
<path class="st8" d="M41.4,36.1H27.4c-0.2,0-0.4-0.2-0.4-0.4v-1.2c0-0.2,0.2-0.4,0.4-0.4h14.1c0.2,0,0.4,0.2,0.4,0.4v1.2
	C41.9,35.9,41.7,36.1,41.4,36.1z"/>
<line class="st7" x1="31.6" y1="38.4" x2="31.6" y2="46"/>
<line class="st7" x1="34.4" y1="38.4" x2="34.4" y2="46"/>
<line class="st7" x1="37.3" y1="38.4" x2="37.3" y2="46"/>
<path class="st8" d="M36.9,34h-5c-0.2,0-0.4-0.2-0.4-0.3v-0.9c0-0.2,0.2-0.3,0.4-0.3h5c0.2,0,0.3,0.2,0.3,0.3v0.9
	C37.3,33.9,37.1,34,36.9,34z"/>
<path class="st9" d="M57.6,18.5l-2.9-2.9c0-0.1,0-0.1,0-0.2L67.2,3c0-0.1,0.1-0.1,0.2,0l2.9,2.9c0,0.1,0,0.1,0,0.2L57.7,18.5
	C57.7,18.5,57.6,18.5,57.6,18.5z"/>
<path class="st9" d="M55,15.2"/>
<polyline class="st9" points="54.7,18.4 54.7,15.4 57.7,18.4 "/>
<line class="st10" x1="54.7" y1="15.3" x2="57.9" y2="18.5"/>
<line class="st10" x1="64.8" y1="5.1" x2="68.1" y2="8.4"/>
<path class="st11" d="M57.6,48.5l-2.9-2.9c0,0,0-0.1,0-0.2L67.2,33c0,0,0.1,0,0.2,0l2.9,2.9c0,0,0,0.1,0,0.2L57.7,48.5
	C57.7,48.5,57.6,48.5,57.6,48.5z"/>
<path class="st9" d="M55,45.2"/>
<polyline class="st11" points="54.7,48.4 54.7,45.4 57.7,48.4 "/>
<line class="st10" x1="54.7" y1="45.3" x2="57.9" y2="48.5"/>
<line class="st10" x1="64.8" y1="35" x2="68.1" y2="38.4"/>
<circle class="st12" cx="314.7" cy="12.6" r="7"/>
<line class="st12" x1="319.8" y1="17.7" x2="324.4" y2="22.3"/>
<line class="st12" x1="186.3" y1="6.7" x2="200.8" y2="21.2"/>
<line class="st12" x1="186.3" y1="21.2" x2="200.8" y2="6.7"/>
<circle class="st12" cx="223.1" cy="40.5" r="7.3"/>
<line class="st12" x1="223.1" y1="36.3" x2="223.1" y2="41"/>
<line class="st12" x1="223" y1="40.7" x2="226.5" y2="44.1"/>
<line class="st13" x1="286.4" y1="33.3" x2="286.6" y2="48.3"/>
<line class="st13" x1="279" y1="40.8" x2="294" y2="40.7"/>
<circle class="st14" cx="222.1" cy="10.4" r="3.1"/>
<path class="st14" d="M222.1,13.5c-3.2,0-5.9,3-6.1,6.7"/>
<path class="st14" d="M222.1,13.5c3.2,0,5.9,3,6.1,6.7"/>
<path class="st14" d="M195.5,38.5c0,1.4-1.1,2.5-2.5,2.5s-2.5-1.1-2.5-2.5s1.1-2.5,2.5-2.5C194.4,36,195.5,37.1,195.5,38.5
	 M198.1,38.5c0-2.8-2.2-5-5-5s-5,2.2-5,5c0,1.2,0.4,2.3,1.2,3.2l3.9,5.6l3.9-5.6c0.1-0.2,0.3-0.4,0.4-0.6l0-0.1h0
	C197.9,40.3,198.1,39.4,198.1,38.5"/>
<line class="st15" x1="96.2" y1="47.6" x2="91.5" y2="42.9"/>
<line class="st15" x1="96" y1="47.4" x2="100.9" y2="42.8"/>
<path class="st16" d="M248.3,13.5l2.2,3.6c0,0,3.6-7.8,8.7-9.9v4.1c0,0-6.5,5.1-8.7,9.4c0,0-4.4-5.1-5.8-5.8L248.3,13.5z"/>
<path class="st17" d="M248.3,39.5l2.2,3.6c0,0,3.6-7.8,8.7-9.9v4.1c0,0-6.5,5.1-8.7,9.4c0,0-4.4-5.1-5.8-5.8L248.3,39.5z"/>
<path class="st16" d="M294.9,4.7h-2.6V3.2c0-0.3-0.2-0.5-0.5-0.5s-0.5,0.2-0.5,0.5v1.5h-10.3V3.2c0-0.3-0.2-0.5-0.5-0.5
	s-0.5,0.2-0.5,0.5v1.5h-2.6c-0.9,0-1.5,0.7-1.5,1.5v15.4c0,0.9,0.7,1.5,1.5,1.5h17.5c0.9,0,1.5-0.7,1.5-1.5V6.3
	C296.5,5.4,295.8,4.7,294.9,4.7z M295.4,21.7c0,0.3-0.2,0.5-0.5,0.5h-17.5c-0.3,0-0.5-0.2-0.5-0.5V6.3c0-0.3,0.2-0.5,0.5-0.5h2.6
	v0.5c0,0.3,0.2,0.5,0.5,0.5s0.5-0.2,0.5-0.5V5.8h10.3v0.5c0,0.3,0.2,0.5,0.5,0.5s0.5-0.2,0.5-0.5V5.8h2.6c0.3,0,0.5,0.2,0.5,0.5
	L295.4,21.7L295.4,21.7z"/>
<line class="st18" x1="276.5" y1="8.8" x2="295.4" y2="8.8"/>
<path class="st18" d="M279.2,11.8h3.2c0.1,0,0.3,0.1,0.3,0.3v2.2c0,0.1-0.1,0.3-0.3,0.3h-3.2c-0.1,0-0.3-0.1-0.3-0.3v-2.2
	C278.9,11.9,279,11.8,279.2,11.8z"/>
<path class="st18" d="M284.7,11.8h3c0.2,0,0.3,0.1,0.3,0.3v2.1c0,0.2-0.1,0.3-0.3,0.3h-3c-0.2,0-0.3-0.1-0.3-0.3v-2.1
	C284.3,11.9,284.5,11.8,284.7,11.8z"/>
<path class="st18" d="M290.1,11.8h3.1c0.2,0,0.3,0.1,0.3,0.3v2.1c0,0.2-0.1,0.3-0.3,0.3h-3.1c-0.2,0-0.3-0.1-0.3-0.3v-2.1
	C289.8,11.9,290,11.8,290.1,11.8z"/>
<path class="st18" d="M279.2,17h3.1c0.2,0,0.3,0.1,0.3,0.3v2.1c0,0.2-0.1,0.3-0.3,0.3h-3.1c-0.2,0-0.3-0.1-0.3-0.3v-2.1
	C278.9,17.2,279,17,279.2,17z"/>
<path class="st18" d="M284.6,17h3.1c0.2,0,0.3,0.1,0.3,0.3v2.1c0,0.2-0.1,0.3-0.3,0.3h-3.1c-0.2,0-0.3-0.1-0.3-0.3v-2.1
	C284.3,17.2,284.5,17,284.6,17z"/>
<path class="st18" d="M290.1,17h3.1c0.2,0,0.3,0.1,0.3,0.3v2.1c0,0.2-0.1,0.3-0.3,0.3h-3.1c-0.2,0-0.3-0.1-0.3-0.3v-2.1
	C289.8,17.2,290,17,290.1,17z"/>
<line class="st12" x1="0.4" y1="3.1" x2="0.4" y2="20.1"/>
<line class="st12" x1="0.1" y1="19.7" x2="15.6" y2="19.7"/>
<line class="st12" x1="15.2" y1="10.8" x2="15.2" y2="19.6"/>
<line class="st12" x1="0.8" y1="3.6" x2="7.4" y2="3.6"/>
<line class="st12" x1="7.8" y1="10.8" x2="14.9" y2="4"/>
<line class="st12" x1="10.5" y1="3.6" x2="15.6" y2="3.6"/>
<line class="st12" x1="15.2" y1="3.9" x2="15.2" y2="7.6"/>
<line class="st19" x1="0.4" y1="29.1" x2="0.4" y2="46.1"/>
<line class="st19" x1="0.1" y1="45.7" x2="15.6" y2="45.7"/>
<line class="st19" x1="15.2" y1="36.8" x2="15.2" y2="45.6"/>
<line class="st19" x1="0.8" y1="29.6" x2="7.4" y2="29.6"/>
<line class="st19" x1="7.8" y1="36.8" x2="14.9" y2="30"/>
<line class="st19" x1="10.5" y1="29.6" x2="15.6" y2="29.6"/>
<line class="st19" x1="15.2" y1="29.9" x2="15.2" y2="33.6"/>
</svg>
